<?xml version="1.0" encoding="utf-8"?>
<!-- Generator: Adobe Illustrator 19.2.0, SVG Export Plug-In . SVG Version: 6.00 Build 0)  -->
<svg version="1.1" id="Layer_1" xmlns="http://www.w3.org/2000/svg" xmlns:xlink="http://www.w3.org/1999/xlink" x="0px" y="0px"
	 viewBox="0 0 179 179" style="enable-background:new 0 0 179 179;" xml:space="preserve">
<style type="text/css">
	.st0{fill:#3F3F3F;}
</style>
<g>
	<path class="st0" d="M89.5,0C40.1,0,0,40.1,0,89.5C0,138.9,40.1,179,89.5,179S179,138.9,179,89.5C179,40.1,138.9,0,89.5,0z
		 M89.5,175C42.4,175,4,136.6,4,89.5S42.4,4,89.5,4C136.6,4,175,42.4,175,89.5S136.6,175,89.5,175z"/>
	<polygon class="st0" points="118.8,55.2 89.5,84.6 60.2,55.2 55.2,60.2 84.6,89.5 55.2,118.8 60.2,123.8 89.5,94.5 118.8,123.8 
		123.8,118.8 94.5,89.5 123.8,60.2 	"/>
</g>
</svg>
